<svg width="36" height="36" viewBox="0 0 36 36" fill="none" xmlns="http://www.w3.org/2000/svg">
<path d="M18.2672 11.8462C19.2656 11.8462 20.5172 11.2053 21.2625 10.3509C21.9375 9.57661 22.4297 8.49523 22.4297 7.41386C22.4297 7.26701 22.4156 7.12015 22.3875 7C21.2766 7.04005 19.9406 7.70757 19.1391 8.60203C18.5063 9.2829 17.9297 10.3509 17.9297 11.4456C17.9297 11.6058 17.9578 11.7661 17.9719 11.8195C18.0422 11.8328 18.1547 11.8462 18.2672 11.8462ZM14.7516 28C16.1156 28 16.7203 27.1322 18.4219 27.1322C20.1516 27.1322 20.5312 27.9733 22.05 27.9733C23.5406 27.9733 24.5391 26.665 25.4813 25.3833C26.5359 23.9148 26.9719 22.473 27 22.4062C26.9016 22.3795 24.0469 21.2715 24.0469 18.1608C24.0469 15.4641 26.2969 14.2492 26.4234 14.1558C24.9328 12.1265 22.6687 12.0731 22.05 12.0731C20.3766 12.0731 19.0125 13.0343 18.1547 13.0343C17.2266 13.0343 16.0031 12.1265 14.5547 12.1265C11.7984 12.1265 9 14.2893 9 18.3744C9 20.911 10.0406 23.5944 11.3203 25.3299C12.4172 26.7985 13.3734 28 14.7516 28Z" fill="white"/>
</svg>
