<svg width="332" height="52" viewBox="0 0 332 52" fill="none" xmlns="http://www.w3.org/2000/svg">
<path d="M331.918 50.571C332.046 23.0211 332.078 11.3578 331.599 2.17453C318.651 -0.417475 12.8028 -0.849797 0.334468 1.7365C-0.30501 26.3887 0.0680482 38.9013 0.654171 50.811C12.0117 52.4324 320.249 52.4363 331.918 50.571Z" fill="white"/>
<path d="M325.845 2.46314C328.234 2.58031 329.923 2.70162 330.881 2.82187C331.323 11.8151 331.294 23.4196 331.172 49.903C330.248 49.9865 328.638 50.0697 326.374 50.1494C323.478 50.2512 319.568 50.3459 314.786 50.4335C305.223 50.6087 292.184 50.7552 276.827 50.8735C246.114 51.11 206.137 51.2338 166.169 51.2485C126.201 51.2632 86.2441 51.169 55.5696 50.9698C40.2321 50.8702 27.217 50.7443 17.6823 50.5928C12.9147 50.517 9.01981 50.4348 6.14093 50.3463C3.88508 50.277 2.2829 50.2044 1.37187 50.1313C0.809883 38.5309 0.462751 26.1619 1.06817 2.38021C2.00434 2.26322 3.65879 2.14657 6.00256 2.0359C8.92227 1.89803 12.8467 1.7715 17.6352 1.65624C27.2113 1.42574 40.2276 1.24064 55.5407 1.09932C86.1661 0.81668 125.968 0.709256 165.786 0.76365C205.604 0.818045 245.435 1.03426 276.121 1.39883C291.464 1.58113 304.518 1.80049 314.139 2.05518C318.95 2.18253 322.899 2.31863 325.845 2.46314Z" stroke="black" stroke-opacity="0.15" stroke-width="1.5"/>
</svg>
