<svg width="36" height="36" viewBox="0 0 36 36" fill="none" xmlns="http://www.w3.org/2000/svg">
<path d="M14.882 12.3883C16.3429 13.3793 17.2113 15.0145 17.2475 17.1059C17.2752 18.705 16.9471 20.2953 16.2889 21.5636C15.6333 22.827 14.6747 23.7321 13.4385 24.0822C11.9648 24.4995 10.5751 24.1186 9.53459 23.1571C8.48456 22.1867 7.75409 20.5845 7.74904 18.5292C7.74623 17.3843 8.03282 16.1027 8.53059 14.9867C9.03427 13.8574 9.71168 12.9905 10.4206 12.5687C11.2503 12.075 12.0178 11.7994 12.7369 11.7561C13.4399 11.7137 14.1471 11.8899 14.882 12.3883Z" stroke="black" stroke-opacity="0.92" stroke-width="1.5" stroke-linecap="round"/>
<path d="M25.882 12.3883C27.3429 13.3793 28.2113 15.0145 28.2475 17.1059C28.2752 18.705 27.9471 20.2953 27.2889 21.5636C26.6333 22.827 25.6747 23.7321 24.4385 24.0822C22.9648 24.4995 21.5751 24.1186 20.5346 23.1571C19.4846 22.1867 18.7541 20.5845 18.749 18.5292C18.7462 17.3843 19.0328 16.1027 19.5306 14.9867C20.0343 13.8574 20.7117 12.9905 21.4206 12.5687C22.2503 12.075 23.0178 11.7994 23.7369 11.7561C24.4399 11.7137 25.1471 11.8899 25.882 12.3883Z" stroke="black" stroke-opacity="0.92" stroke-width="1.5" stroke-linecap="round"/>
<path d="M11.0186 16.2193C11.6318 16.5461 11.9839 17.082 11.9984 17.7408C12.0198 18.7128 11.4937 19.7039 10.415 19.9439C9.15484 20.2243 8.00302 19.426 7.99903 18.1517C7.99678 17.4316 8.45397 16.5678 9.10377 16.264C9.75357 15.9603 10.3899 15.8843 11.0186 16.2193Z" fill="black" fill-opacity="0.92" stroke="black" stroke-opacity="0.92" stroke-width="1.5" stroke-linecap="round"/>
<path d="M22.0186 16.2193C22.6318 16.5461 22.9839 17.082 22.9984 17.7408C23.0198 18.7128 22.4937 19.7039 21.415 19.9439C20.1548 20.2243 19.003 19.426 18.999 18.1517C18.9968 17.4316 19.454 16.5678 20.1038 16.264C20.7536 15.9603 21.3899 15.8843 22.0186 16.2193Z" fill="black" fill-opacity="0.92" stroke="black" stroke-opacity="0.92" stroke-width="1.5" stroke-linecap="round"/>
</svg>
