<svg width="24" height="25" viewBox="0 0 24 25" fill="none" xmlns="http://www.w3.org/2000/svg">
<path d="M3.24827 8.13499C3.30826 7.74509 3.48729 7.13672 3.95748 7.13672L7.47998 7.37872C7.95965 7.43868 7.96399 7.90692 7.96399 8.31985V10.4172C7.96399 12.0677 8.02449 13.721 8.02449 15.3649C8.02449 16.1336 8.16681 16.9299 8.14549 17.6975C8.13323 18.1391 8.08683 18.5996 7.88565 19.002C7.69715 19.379 7.27169 19.4789 6.90522 19.4789H5.38565C4.9003 19.4789 4.18198 19.4517 3.72892 19.2504C2.91317 18.8878 3.00292 18.5701 3.00292 17.502C3.00292 16.0312 3.06341 15.0668 3.06341 13.5969C3.06341 12.5869 3.0614 11.5807 3.12055 10.5752C3.16884 9.75421 3.1232 8.94797 3.24827 8.13499Z" stroke="black" stroke-width="1.5" stroke-linecap="round"/>
<path d="M8 9.63904C8.33873 9.26848 8.83182 8.70599 9.19624 8.3472C9.84895 7.70457 10.4936 7.01345 11.1312 6.35074C11.9758 5.47302 12.9161 4.00195 14.2922 4.00195C15.1517 4.00195 15.6022 4.3306 15.7202 5.20244C15.8473 6.1407 15.6223 7.07144 15.4883 7.99489C15.4263 8.42224 15.328 8.84056 15.422 9.25736C15.5206 9.69425 17.4681 9.58032 17.8242 9.58032C18.7358 9.58032 20.2689 9.47627 20.687 10.4024C21.5663 12.3503 20.3671 14.2934 19.852 16.1953C19.4965 17.508 18.7493 19.5107 17.1847 19.853C15.8065 20.1545 14.2808 19.9259 12.8608 19.7975C11.3367 19.6597 9.72197 17.8294 8.5 17.002" stroke="black" stroke-width="1.5" stroke-linecap="round"/>
</svg>
