<svg width="36" height="36" viewBox="0 0 36 36" fill="none" xmlns="http://www.w3.org/2000/svg">
<path fill-rule="evenodd" clip-rule="evenodd" d="M28.5541 18.2466C28.5541 17.4666 28.4841 16.7166 28.3541 15.9966H17.9941V20.2516H23.9141C23.6591 21.6266 22.8841 22.7916 21.7191 23.5716V26.3316H25.2741C27.3541 24.4166 28.5541 21.5966 28.5541 18.2466Z" fill="#4285F4"/>
<path fill-rule="evenodd" clip-rule="evenodd" d="M18.0058 28.9886C20.9758 28.9886 23.4658 28.0036 25.2858 26.3236L21.7308 23.5636C20.7458 24.2236 19.4858 24.6136 18.0058 24.6136C15.1408 24.6136 12.7158 22.6786 11.8508 20.0786H8.17578V22.9286C9.98578 26.5236 13.7058 28.9886 18.0058 28.9886Z" fill="#34A853"/>
<path fill-rule="evenodd" clip-rule="evenodd" d="M11.845 20.0832C11.625 19.4232 11.5 18.7182 11.5 17.9932C11.5 17.2682 11.625 16.5632 11.845 15.9032V13.0532H8.17C7.425 14.5382 7 16.2182 7 17.9932C7 19.7682 7.425 21.4482 8.17 22.9332L11.845 20.0832Z" fill="#FBBC05"/>
<path fill-rule="evenodd" clip-rule="evenodd" d="M18.0058 11.375C19.6208 11.375 21.0708 11.93 22.2108 13.02L25.3658 9.865C23.4608 8.09 20.9708 7 18.0058 7C13.7058 7 9.98578 9.465 8.17578 13.06L11.8508 15.91C12.7158 13.31 15.1408 11.375 18.0058 11.375Z" fill="#EA4335"/>
</svg>
