<svg width="36rem" height="36rem" viewBox="0 0 36 36" fill="none" xmlns="http://www.w3.org/2000/svg">
      <rect opacity="0.3" width="36" height="36" fill="white"></rect>
      <path d="M12.3923 13.4158C14.1318 11.7738 17.2266 9.13361 17.9948 9.00687C18.763 8.88013 20.2448 10.5266 21.9348 12.2648C23.6249 14.0031 24.7462 15.1938 26.2208 16.6181C27.1923 17.5564 26.8949 19.7797 26.9474 20.9977C27.0358 23.0471 26.9965 25.1633 26.9474 27.585C26.9388 28.0081 25.1196 28.0186 22.88 27.9702C19.3295 27.8934 14.5993 27.933 13.8385 27.933H10.1628C9.84327 27.933 9.54699 27.9554 9.23064 27.998C9.01189 28.0275 9.08649 27.7237 9.08649 27.585C9.08649 25.8398 9 24.0861 9 22.336C9 20.0746 9.13825 19.7055 9.08648 17.4552C9.06008 16.308 11.5808 14.1818 12.3923 13.4158Z" fill="#000000" stroke="#000000" strokeOpacity="0.92" strokeWidth="1.5" strokeLinecap="round"></path>
      <path d="M15.25 24C16.7478 23.6453 18.4822 23.8099 20 23.75" stroke="#FFFFFF" strokeOpacity="0.92" strokeWidth="1.5" strokeLinecap="round"></path>
    </svg>