<svg width="36" height="36" viewBox="0 0 36 36" fill="none" xmlns="http://www.w3.org/2000/svg">
<path d="M17.973 6C10.7915 6 5 10.6332 5 16.2579C5 19.9089 7.40928 23.1058 11.0232 24.9313L9.80002 29.4997C9.77696 29.5682 9.77341 29.6416 9.78977 29.712C9.80614 29.7824 9.84177 29.8468 9.89268 29.8981C9.96692 29.9636 10.0624 29.9998 10.1614 30C10.2435 29.9934 10.3213 29.961 10.3838 29.9074L15.6471 26.3584C16.4241 26.4656 17.2073 26.5212 17.9916 26.5251C25.1638 26.5251 30.9646 21.8919 30.9646 16.2579C30.9646 10.6239 25.1453 6 17.973 6Z" fill="#392020"/>
<path d="M9.54036 14.6362H8.1226C7.94687 14.6413 7.77332 14.5963 7.62221 14.5065C7.55512 14.4645 7.49744 14.409 7.45279 14.3436C7.40814 14.2782 7.37749 14.2043 7.36275 14.1265C7.35825 14.0772 7.35825 14.0277 7.36275 13.9784C7.35835 13.8861 7.37626 13.794 7.41498 13.7102C7.45369 13.6263 7.51206 13.553 7.58514 13.4965C7.74669 13.3795 7.94168 13.3177 8.14113 13.3204H12.413C12.5901 13.3141 12.7648 13.3627 12.9134 13.4594C12.982 13.4995 13.0409 13.5545 13.0858 13.6202C13.1307 13.6859 13.1604 13.7607 13.1728 13.8393C13.1773 13.8856 13.1773 13.9321 13.1728 13.9784C13.1772 14.072 13.1593 14.1653 13.1206 14.2506C13.082 14.336 13.0237 14.4109 12.9504 14.4694C12.7928 14.5862 12.5997 14.6452 12.4037 14.6362H11.0323V19.5104C11.0378 19.6142 11.0218 19.718 10.9851 19.8154C10.9484 19.9127 10.8919 20.0013 10.8191 20.0756C10.7494 20.1467 10.6655 20.2024 10.573 20.2391C10.4804 20.2758 10.3812 20.2927 10.2817 20.2887C10.1076 20.2937 9.93731 20.2381 9.79982 20.1313C9.66893 20.027 9.58009 19.8788 9.54963 19.7142C9.54048 19.6466 9.54048 19.578 9.54963 19.5104L9.54036 14.6362Z" fill="#FEE500"/>
<path d="M13.5813 13.6817C13.622 13.5292 13.7178 13.3972 13.85 13.311C13.9909 13.2311 14.1515 13.1926 14.3133 13.1998H14.6655C14.8372 13.1937 15.0072 13.2354 15.1566 13.3203C15.3149 13.4267 15.4273 13.5888 15.4716 13.7743L17.3249 19.0099C17.373 19.1465 17.4132 19.2858 17.4454 19.427C17.4486 19.4856 17.4486 19.5443 17.4454 19.603C17.4485 19.6933 17.4319 19.7832 17.3967 19.8664C17.3615 19.9496 17.3085 20.0242 17.2415 20.0848C17.1766 20.1514 17.0987 20.2038 17.0126 20.2389C16.9265 20.274 16.8341 20.2909 16.7411 20.2887C16.5982 20.3029 16.4547 20.2686 16.3336 20.1913C16.2126 20.114 16.1211 19.9981 16.074 19.8625L15.6848 18.7227H13.2477L12.8585 19.8625C12.8125 20.0008 12.7199 20.1189 12.5965 20.1966C12.4732 20.2743 12.3267 20.3069 12.182 20.2887C12.0254 20.2928 11.8719 20.2438 11.7465 20.1497C11.6244 20.0525 11.542 19.9142 11.5149 19.7605C11.5099 19.7082 11.5099 19.6554 11.5149 19.603C11.499 19.511 11.499 19.417 11.5149 19.325C11.5149 19.2231 11.5797 19.1118 11.6168 19.0099L13.5813 13.6817ZM14.5079 14.8957L13.6276 17.6756H15.379L14.5079 14.8957Z" fill="#FEE500"/>
<path d="M17.658 13.9785C17.6486 13.7705 17.7219 13.5673 17.8619 13.4132C17.9331 13.3414 18.0185 13.2853 18.1127 13.2486C18.2068 13.2119 18.3076 13.1953 18.4086 13.2C18.5822 13.198 18.7516 13.2534 18.8905 13.3576C19.0192 13.4663 19.1047 13.6175 19.1314 13.7838C19.1405 13.8483 19.1405 13.9139 19.1314 13.9785V18.8526H21.6797C21.8563 18.8503 22.0299 18.8984 22.1801 18.9915C22.2475 19.0331 22.3055 19.0885 22.3502 19.154C22.3949 19.2194 22.4253 19.2935 22.4395 19.3715C22.4395 19.3715 22.4395 19.4642 22.4395 19.5105C22.4439 19.6028 22.426 19.6947 22.3873 19.7786C22.3486 19.8625 22.2902 19.9358 22.2171 19.9924C22.0556 20.1094 21.8606 20.1711 21.6611 20.1684H18.5291C18.3296 20.1812 18.1313 20.1293 17.9638 20.0202C17.814 19.9082 17.7142 19.7418 17.6858 19.5569C17.679 19.4551 17.679 19.3528 17.6858 19.251L17.658 13.9785Z" fill="#FEE500"/>
<path d="M22.6064 13.9783C22.6009 13.7709 22.6737 13.5691 22.8103 13.413C22.9491 13.2868 23.1273 13.2123 23.3147 13.2022C23.502 13.1921 23.6872 13.2469 23.8388 13.3574C23.9704 13.4651 24.0591 13.6163 24.089 13.7836C24.0936 13.8484 24.0936 13.9135 24.089 13.9783V16.2485L26.4334 13.5427C26.5238 13.4504 26.6197 13.3638 26.7207 13.2833C26.8159 13.2266 26.925 13.1977 27.0358 13.1998C27.1977 13.1989 27.3561 13.2474 27.4898 13.3388C27.5528 13.3813 27.6066 13.436 27.648 13.4997C27.6894 13.5634 27.7176 13.6347 27.7308 13.7095C27.7345 13.7279 27.7345 13.7468 27.7308 13.7652C27.7263 13.7866 27.7263 13.8086 27.7308 13.83C27.7304 13.9275 27.7049 14.0233 27.6566 14.108C27.6074 14.1977 27.5484 14.2816 27.4806 14.3581L25.9423 16.0447L27.7956 18.9173V19.0099C27.8918 19.1427 27.9669 19.2897 28.018 19.4455V19.4918C28.0287 19.5991 28.0133 19.7075 27.9729 19.8076C27.9326 19.9077 27.8685 19.9964 27.7863 20.0663C27.6318 20.1831 27.4426 20.2451 27.2489 20.2424C27.1202 20.2477 26.9923 20.2189 26.8782 20.1589C26.7548 20.0762 26.6531 19.9649 26.5817 19.8346L24.8582 17.0547L24.0334 17.9165V19.4639C24.039 19.6713 23.9662 19.8731 23.8296 20.0292C23.7563 20.1008 23.6692 20.1567 23.5736 20.1933C23.478 20.23 23.3759 20.2467 23.2736 20.2424C23.1026 20.246 22.9356 20.1903 22.801 20.0848C22.6701 19.9805 22.5813 19.8325 22.5508 19.6679C22.5417 19.6002 22.5417 19.5316 22.5508 19.4639L22.6064 13.9783Z" fill="#FEE500"/>
</svg>
