<svg width="200" height="140" viewBox="0 0 200 140" fill="none" xmlns="http://www.w3.org/2000/svg">
<ellipse opacity="0.8" cx="140" cy="77.6448" rx="58" ry="57.2368" fill="#FCF4DE"/>
<ellipse opacity="0.5" cx="38" cy="24.3554" rx="24" ry="23.6842" fill="#E9F2FF"/>
<path fill-rule="evenodd" clip-rule="evenodd" d="M63.9377 91.6179C63.6844 88.759 61.8026 87.7095 59.776 87.7095C57.7855 87.7095 55.8313 88.6866 55.5418 91.6179L55.4332 93.1017H55.1075C52.9723 93.1379 51.7057 94.5493 51.7057 97.1911C51.7057 99.833 52.9723 101.244 55.1075 101.281H55.4694L55.578 102.909C55.9037 105.623 57.1703 107.469 59.595 107.469C61.9835 107.469 63.612 105.913 63.9377 103.162C64.1911 101.027 64.1911 94.3322 63.9377 91.6179ZM47.8696 105.877C50.2581 105.37 51.4885 104.755 51.4885 102.511C51.4885 101.57 50.9457 100.81 50.3667 100.267C51.4162 98.2044 51.38 95.3093 51.2714 93.3189C51.1266 90.7856 49.9324 89.6275 47.2544 89.0123C44.3954 88.3609 39.6184 88.4333 36.7232 89.1571C34.6966 89.6637 33.5385 91.1113 33.2128 93.6446C32.9233 95.8521 32.9233 99.1816 33.249 101.353C33.6833 104.32 34.769 105.515 36.7956 105.949C39.2203 106.456 45.0106 106.492 47.8696 105.877ZM50.6562 107.179C42.1154 107.179 37.5556 110.147 37.5556 115.069C37.5556 119.991 42.1154 122.958 50.6562 122.958C59.1607 122.958 63.8292 119.991 63.8292 115.069C63.8292 110.147 59.1607 107.179 50.6562 107.179ZM50.6924 116.408C47.5077 116.408 46.603 115.865 46.603 115.069C46.603 114.273 47.5077 113.73 50.6924 113.73C53.8409 113.73 54.7818 114.273 54.7818 115.069C54.7818 115.865 53.8409 116.408 50.6924 116.408ZM97.5577 98.1683C97.1596 98.1683 96.7977 98.2044 96.4358 98.2406V97.0464H97.232C99.5843 97.0464 100.742 95.8883 100.742 93.7169C100.742 91.6903 99.6929 90.5684 97.5577 90.5684C97.0148 90.5684 96.5082 90.6046 96.0739 90.677C95.5311 88.6866 93.9387 87.9266 92.1654 87.9266C90.1388 87.9266 88.2208 88.9037 87.9312 91.8351C87.5332 95.7074 87.6055 99.4349 87.9674 103.416C88.2208 106.13 89.8493 107.614 92.3102 107.614C94.3368 107.614 95.5672 106.528 96.0739 104.61C96.6529 104.646 96.8339 104.646 97.232 104.646C99.5843 104.646 100.742 103.488 100.742 101.317C100.742 99.2901 99.6929 98.1683 97.5577 98.1683ZM83.1542 105.442C86.1942 104.719 86.9903 103.235 86.737 101.063C86.5199 99.1816 85.2894 98.3492 83.0457 98.313C80.44 98.2768 77.9067 98.494 75.7354 98.8559C75.9525 96.6483 75.9887 94.296 75.7354 92.197C75.482 90.098 73.8535 88.8675 71.6459 88.8675C69.3298 88.8675 67.9184 90.1704 67.5927 92.3055C67.1946 94.9836 67.2308 98.3492 67.5927 100.919C67.9546 103.597 69.1489 105.442 72.1164 105.985C74.9392 106.492 80.2953 106.13 83.1542 105.442ZM83.1542 107.252C74.6135 107.252 70.0536 110.219 70.0536 115.141C70.0536 120.063 74.6135 123.03 83.1542 123.03C91.6588 123.03 96.3272 120.063 96.3272 115.141C96.3272 110.219 91.6588 107.252 83.1542 107.252ZM83.1904 116.48C80.0057 116.48 79.101 115.937 79.101 115.141C79.101 114.345 80.0057 113.802 83.1904 113.802C86.3389 113.802 87.2798 114.345 87.2798 115.141C87.2798 115.937 86.3389 116.48 83.1904 116.48ZM121.081 111.631C124.41 111.667 127.559 111.776 130.056 111.956C132.661 112.137 133.602 113.694 133.602 115.394C133.602 117.095 132.661 118.652 130.056 118.869C123.216 119.448 110.658 119.484 104.18 118.941C101.611 118.724 100.308 117.385 100.308 115.394C100.308 113.404 101.611 112.101 104.18 111.956C106.569 111.812 109.355 111.739 112.25 111.667C112.214 110.256 112.214 108.664 112.214 107.614V107.614C110.224 107.541 108.559 107.433 107.799 107.324C105.266 106.89 103.637 105.804 103.058 103.162C102.335 99.9054 102.552 94.8388 103.203 92.1246C103.746 89.8447 105.157 88.9761 107.148 89.0123C109.03 89.0485 110.658 89.8808 110.875 92.1246V92.1608C114.313 92.016 118.982 92.0522 122.094 92.197C122.528 90.098 123.686 88.8675 125.858 88.8675C128.427 88.8675 129.766 90.4599 130.02 93.0655C130.345 96.3588 130.454 100.195 129.875 104.755C129.585 107.035 128.21 108.41 126.002 108.41C124.953 108.41 124.048 108.084 123.324 107.541L121.117 107.65V107.651C121.117 108.7 121.117 110.22 121.081 111.631ZM164.815 93.0293C164.345 93.0293 163.911 93.0655 163.512 93.1379C163.512 92.7036 163.476 92.2694 163.44 91.8351C163.259 88.9761 161.45 87.9266 159.423 87.9266C157.433 87.9266 155.623 88.9037 155.334 91.8351C154.936 95.7074 155.008 98.6025 155.37 102.583C155.623 105.298 157.035 106.781 159.459 106.781C161.848 106.781 163.259 105.225 163.44 102.475C163.44 102.366 163.449 102.267 163.458 102.167C163.467 102.068 163.476 101.968 163.476 101.86C163.947 101.896 164.128 101.896 164.49 101.896C166.842 101.896 168 100.303 168 97.3721C168 94.5493 166.951 93.0293 164.815 93.0293ZM140.134 107.035C144.622 105.949 149.76 102.62 151.751 99.652C153.452 97.1188 153.379 95.2007 153.162 93.536C152.873 91.2922 151.172 89.8808 148.747 89.3018C146.286 88.7228 140.749 88.8313 138.397 89.2656C136.117 89.6999 134.561 90.7132 134.742 93.1017C134.887 94.875 136.262 96.0331 138.144 96.1416C140.17 96.2502 142.993 96.1055 145.02 95.9607C142.776 97.9873 139.736 99.7606 136.986 101.063C134.887 102.077 134.416 104.212 135.466 105.877C136.479 107.469 138.361 107.469 140.134 107.035ZM162.535 116.77C163.585 115.937 163.657 113.73 163.585 111.884C163.512 109.677 161.703 108.338 157.903 107.831C153.814 107.288 146.54 107.397 142.45 107.976C139.555 108.374 137.89 109.64 137.565 111.92C137.275 113.947 137.203 116.154 137.565 118.109C138.107 121.004 139.808 122.198 142.45 122.451C147.951 122.994 153.235 122.994 158.735 122.415C162.137 122.053 163.838 121.221 163.838 119.086C163.838 118.181 163.368 117.24 162.535 116.77ZM154.61 116.154C151.715 115.974 149.109 115.974 146.178 116.154V113.911C149.073 114.055 151.679 114.055 154.61 113.911V116.154ZM113.647 97.028L113.648 97.0287L113.663 97.0393C113.678 97.0502 113.704 97.0685 113.739 97.0931C113.811 97.1423 113.924 97.2165 114.074 97.3072C114.375 97.4888 114.826 97.7348 115.402 97.9776C116.558 98.4641 118.2 98.9297 120.157 98.8572C120.743 98.8355 121.236 99.2929 121.257 99.8788C121.279 100.465 120.822 100.957 120.236 100.979C117.897 101.066 115.944 100.509 114.578 99.9344C113.895 99.6465 113.353 99.3518 112.978 99.1254C112.79 99.0121 112.643 98.9155 112.54 98.8449C112.488 98.8095 112.448 98.7806 112.418 98.7593C112.403 98.7487 112.391 98.7399 112.382 98.7332L112.371 98.7247L112.367 98.7216L112.365 98.7203L112.365 98.7198C112.364 98.7195 112.364 98.7193 113.007 97.8746L112.364 98.7193C111.897 98.3641 111.807 97.698 112.162 97.2315C112.517 96.7659 113.181 96.6752 113.647 97.028ZM39.5695 95.2694C40.0886 95.0085 40.72 95.2136 40.9876 95.7272C40.9892 95.7301 40.993 95.7366 40.9989 95.7463C41.014 95.7712 41.043 95.8162 41.0873 95.8749C41.1762 95.9929 41.3237 96.1621 41.5406 96.3347C41.961 96.6693 42.6835 97.0511 43.8556 97.0511C44.4419 97.0511 44.9172 97.5264 44.9172 98.1127C44.9172 98.699 44.4419 99.1743 43.8556 99.1743C42.1707 99.1743 40.9885 98.6088 40.2185 97.996C39.8402 97.6949 39.5709 97.3905 39.392 97.1531C39.3023 97.0342 39.2346 96.9312 39.1865 96.8524C39.1625 96.813 39.1432 96.7795 39.1285 96.7529C39.1212 96.7396 39.115 96.728 39.1098 96.7183L39.103 96.7051L39.1001 96.6995L39.0988 96.697L39.0983 96.6958C39.098 96.6953 39.0977 96.6947 40.0462 96.218L39.0977 96.6947C38.8344 96.1709 39.0456 95.5327 39.5695 95.2694Z" fill="#343435"/>
<path d="M55.5351 14.3514C63.6351 14.3514 65.3789 19.6951 65.2383 22.367C65.2383 22.367 68.6133 21.5232 71.1445 24.0545C74.0977 22.367 78.0352 23.0701 79.1602 24.0545C82.1977 16.292 88.8633 18.5701 91.8164 20.6795C101.941 17.9795 103.348 24.8982 102.785 28.6951C108.86 37.4701 101.379 42.7576 96.8789 44.3045C99.5789 53.417 93.2227 59.3514 89.707 61.1795C87.682 72.317 77.332 72.2889 72.4102 70.8826C63.6352 78.3076 54.6914 72.2889 51.3164 68.3514C36.1289 68.3514 34.582 59.3514 35.707 54.8514C33.3445 48.7764 37.5352 44.7264 39.9258 43.4607C38.2384 40.0857 39.2227 37.2732 39.9258 36.2889C38.5196 36.1482 34.8633 33.8024 34.8633 28.6951C34.8632 23.6326 38.5195 21.8045 40.7695 21.1014C39.5039 19.1326 39.9258 14.7732 44.5664 12.242C50.2887 9.12074 54.4101 12.6639 55.5351 14.3514Z" fill="#121213"/>
<path d="M81.2695 25.7003C80.6013 26.7131 78.4284 26.1223 77.7323 25.7003C75.2264 24.4343 72.1358 25.7847 71.4676 26.1223C70.6323 26.5443 70.2146 26.5443 69.3793 25.7003C68.544 24.8563 66.0381 24.4343 64.7852 24.8563C63.5322 25.2783 62.2852 23.6327 62.6969 21.9024C63.0877 20.2604 61.8523 19.0362 60.5977 18.1484C59.1437 17.1194 57.2675 17.6821 55.5969 17.6821C53.9263 17.6821 53.9263 16.8382 52.6733 15.9942C51.4204 15.1502 49.3322 13.0408 45.991 14.3067C42.6498 15.5727 42.0894 18.6602 42.6498 19.7925C43.485 21.4804 43.0674 22.7464 42.2321 23.1684C41.3968 23.5904 40.5615 23.5904 38.8909 26.9663C37.2203 30.3421 39.4519 33.1212 41.8145 33.718C43.485 34.14 43.0674 35.8279 42.6498 36.2499C40.9792 37.5159 41.8145 39.6258 42.2321 41.3137C42.536 42.5419 43.485 44.2676 40.1439 46.3776C37.4709 48.0655 37.6379 51.1601 38.0555 52.7073C38.3897 53.3825 38.6403 53.9733 38.4732 54.8173C36.385 65.3669 48.9144 66.2108 50.585 66.2108C52.2556 66.2108 53.0909 66.2108 53.9262 67.0548C54.7615 67.8988 56.0204 71.7264 62.2852 72.1484C68.5499 72.5703 70.2146 68.7427 70.6322 68.3208C71.0499 67.8988 72.3383 67.3568 73.5558 68.3208C74.2895 68.9017 79.0516 69.7273 82.7441 67.8988C87.0401 65.7713 86.9206 59.8811 87.3382 59.0371C87.7559 58.1931 89.4265 58.1931 92.35 54.8173C95.2736 51.4414 95.2736 48.4875 95.2736 47.2215C95.2736 45.9556 94.4383 44.6896 94.0206 44.6896C93.603 44.6896 94.8559 42.1577 95.6912 42.1577C96.5265 42.1577 98.8716 41.6388 101.121 37.0939C103.209 32.874 100.703 29.4982 100.285 28.2322C99.8677 26.9663 101.121 24.4343 98.6148 22.7464C96.1089 21.0585 94.8559 23.1684 92.7677 23.1684C90.6794 23.1684 90.7743 22.4789 89.707 21.9452C88.8633 21.5234 87.4608 20.6322 84.6445 21.5234C82.1133 22.3243 82.1048 24.4343 81.2695 25.7003Z" fill="white"/>
<path fill-rule="evenodd" clip-rule="evenodd" d="M56.683 41.4291C57.7288 41.0983 58.5469 41.8805 58.7928 42.6764C59.0387 43.4723 58.3195 44.5601 57.5013 44.7983C56.683 45.0366 55.5352 44.2158 55.5352 43.2976C55.5352 42.3794 55.6373 41.7599 56.683 41.4291Z" fill="#121213"/>
<path fill-rule="evenodd" clip-rule="evenodd" d="M57.8685 41.8739C57.5702 41.6671 57.1987 41.5767 56.7718 41.7118C56.3006 41.8608 56.0913 42.0568 55.981 42.2763C55.8598 42.5176 55.8308 42.8364 55.8308 43.2978C55.8308 43.6339 56.0464 43.9897 56.3878 44.2443C56.7312 44.5003 57.1274 44.5986 57.4178 44.5141C57.7403 44.4202 58.0712 44.1458 58.2944 43.7894C58.5192 43.4306 58.5977 43.0505 58.5092 42.764C58.4038 42.423 58.1748 42.0862 57.8685 41.8739ZM58.206 41.3869C58.6318 41.682 58.9347 42.1342 59.0753 42.5891C59.2327 43.0986 59.0745 43.6603 58.7966 44.1039C58.5172 44.55 58.0793 44.9386 57.5835 45.083C57.0557 45.2366 56.4688 45.0437 56.0337 44.7193C55.5966 44.3935 55.2383 43.8798 55.2383 43.2978C55.2383 42.8409 55.2604 42.3909 55.4516 42.0102C55.6538 41.6077 56.0185 41.3286 56.5931 41.1468C57.212 40.9511 57.7724 41.0864 58.206 41.3869Z" fill="#121213"/>
<path fill-rule="evenodd" clip-rule="evenodd" d="M71.8705 43.9604C72.9163 43.6296 73.7344 44.4117 73.9803 45.2076C74.2262 46.0036 73.507 47.0913 72.6888 47.3296C71.8705 47.5678 70.7227 46.747 70.7227 45.8288C70.7227 44.9106 70.8248 44.2912 71.8705 43.9604Z" fill="#121213"/>
<path fill-rule="evenodd" clip-rule="evenodd" d="M73.056 44.4052C72.7577 44.1984 72.3862 44.108 71.9593 44.243C71.4881 44.3921 71.2788 44.5881 71.1685 44.8075C71.0473 45.0489 71.0183 45.3677 71.0183 45.829C71.0183 46.1652 71.2339 46.521 71.5753 46.7755C71.9187 47.0315 72.3149 47.1299 72.6053 47.0453C72.9278 46.9514 73.2587 46.6771 73.4819 46.3206C73.7067 45.9619 73.7852 45.5817 73.6967 45.2953C73.5913 44.9543 73.3623 44.6174 73.056 44.4052ZM73.3935 43.9182C73.8193 44.2133 74.1222 44.6655 74.2628 45.1204C74.4202 45.6298 74.262 46.1915 73.9841 46.6352C73.7047 47.0812 73.2668 47.4698 72.771 47.6142C72.2432 47.7679 71.6563 47.575 71.2212 47.2506C70.7841 46.9247 70.4258 46.411 70.4258 45.829C70.4258 45.3722 70.4479 44.9221 70.6391 44.5415C70.8413 44.1389 71.206 43.8598 71.7806 43.6781C72.3995 43.4823 72.9599 43.6176 73.3935 43.9182Z" fill="#121213"/>
<path fill-rule="evenodd" clip-rule="evenodd" d="M62.7061 48.9451C62.036 48.8049 60.5967 46.7301 60.5967 45.7697C60.5967 44.8092 61.2881 44.4868 63.8225 44.9072C66.3569 45.3276 67.1413 46.5607 66.9696 47.0682C66.6659 47.9658 63.3761 49.0852 62.7061 48.9451Z" fill="#121213"/>
<path fill-rule="evenodd" clip-rule="evenodd" d="M60.4974 45.0078C60.3495 45.2325 60.301 45.4972 60.301 45.7697C60.301 46.0715 60.4105 46.4264 60.5613 46.7703C60.7151 47.1214 60.9253 47.4909 61.1552 47.8309C61.3848 48.1706 61.6392 48.4887 61.8848 48.7344C62.0075 48.8571 62.1323 48.966 62.2544 49.051C62.3731 49.1336 62.5067 49.206 62.646 49.2351C62.7792 49.263 62.9438 49.2554 63.1058 49.2356C63.2754 49.2148 63.472 49.1764 63.6829 49.125C64.1051 49.0222 64.6017 48.8629 65.085 48.6712C65.5672 48.4799 66.046 48.2524 66.4285 48.0102C66.6197 47.8891 66.7935 47.7602 66.933 47.6254C67.0696 47.4935 67.1913 47.3388 67.2508 47.1632C67.3263 46.94 67.2841 46.6861 67.1764 46.4518C67.0662 46.2122 66.8758 45.9647 66.605 45.7308C66.0623 45.2624 65.1777 44.8317 63.8715 44.615C62.6067 44.4052 61.737 44.3668 61.174 44.5371C60.8796 44.6261 60.6486 44.778 60.4974 45.0078ZM61.3455 45.1042C61.7618 44.9783 62.505 44.9889 63.7746 45.1995C65.0028 45.4033 65.7776 45.7993 66.2178 46.1793C66.4384 46.3698 66.5703 46.5519 66.6381 46.6994C66.7083 46.8522 66.6998 46.9428 66.6895 46.9733C66.673 47.0221 66.6254 47.0987 66.5214 47.1993C66.4202 47.2969 66.282 47.4016 66.1115 47.5096C65.7708 47.7253 65.3284 47.9372 64.8665 48.1204C64.4056 48.3032 63.9352 48.4537 63.5426 48.5493C63.3461 48.5972 63.1734 48.6303 63.0337 48.6474C62.8863 48.6655 62.8015 48.6623 62.7673 48.6551C62.739 48.6492 62.6811 48.6261 62.5928 48.5647C62.508 48.5056 62.4103 48.4219 62.3039 48.3154C62.0911 48.1026 61.8601 47.8157 61.6461 47.4991C61.4324 47.1829 61.2409 46.8448 61.1039 46.5324C60.9639 46.2128 60.8935 45.9482 60.8935 45.7697C60.8935 45.562 60.9314 45.4262 60.9924 45.3335C61.05 45.2458 61.1502 45.1633 61.3455 45.1042Z" fill="#121213"/>
<path fill-rule="evenodd" clip-rule="evenodd" d="M143.604 26.0894C135.823 24.8467 124.876 27.5631 124.876 27.5631C124.876 27.5631 122.295 25.0959 121.079 24.1881C117.242 21.3236 113.662 20.0507 113.063 20.3912C111.88 21.0637 111.505 33.5966 111.505 33.5966C111.505 33.5966 101.839 42.414 103.601 56.9384C105.364 71.4628 118.818 76.1298 137.11 77.6115C155.402 79.0932 164.514 63.4672 165.412 52.3784C166.265 41.8441 160.619 33.9391 159.733 32.6982C159.686 32.6329 159.653 32.5861 159.634 32.5583C159.261 32.0022 159.136 31.8679 158.023 31.8679C157.594 31.8679 157.661 30.1212 157.746 27.8839C157.882 24.3094 158.065 19.4826 156.353 18.5265C153.57 16.9721 143.604 26.0894 143.604 26.0894Z" fill="white"/>
<path fill-rule="evenodd" clip-rule="evenodd" d="M143.604 26.0894C135.823 24.8467 124.876 27.5631 124.876 27.5631C124.876 27.5631 122.295 25.0959 121.079 24.1881C117.242 21.3236 113.662 20.0507 113.063 20.3912C111.88 21.0637 111.505 33.5966 111.505 33.5966C111.505 33.5966 101.839 42.414 103.601 56.9384C105.364 71.4628 118.818 76.1298 137.11 77.6115C155.402 79.0932 164.514 63.4672 165.412 52.3784C166.265 41.8441 160.619 33.9391 159.733 32.6982C159.686 32.6329 159.653 32.5861 159.634 32.5583C159.261 32.0022 159.136 31.8679 158.023 31.8679C157.594 31.8679 157.661 30.1212 157.746 27.8839C157.882 24.3094 158.065 19.4826 156.353 18.5265C153.57 16.9721 143.604 26.0894 143.604 26.0894ZM114.702 24.0283L113.317 34.2138C113.317 34.2138 105.842 44.0363 106.634 56.4763C107.425 68.9163 124.013 75.6098 136.258 75.6098C148.504 75.6098 159.382 69.3776 162.378 57.279C165.374 45.1803 157.711 35.0313 156.373 34.2138C155.035 33.3964 155.358 31.4958 155.358 31.4958C155.358 31.4958 156.122 23.4394 153.944 22.2541C151.765 21.0687 143.767 27.9905 143.767 27.9905C135.3 26.86 123.423 30.2555 123.423 30.2555C121.344 26.2971 114.702 24.0283 114.702 24.0283Z" fill="#121213"/>
<path fill-rule="evenodd" clip-rule="evenodd" d="M127.431 41.3907C128.493 41.1151 129.269 41.939 129.473 42.7467C129.677 43.5544 128.902 44.603 128.072 44.7981C127.242 44.9932 126.139 44.1135 126.187 43.1965C126.235 42.2796 126.37 41.6663 127.431 41.3907Z" fill="#121213"/>
<path fill-rule="evenodd" clip-rule="evenodd" d="M128.592 41.8969C128.304 41.6748 127.938 41.5651 127.505 41.6776C127.026 41.8018 126.807 41.9866 126.686 42.1999C126.552 42.4346 126.506 42.7514 126.482 43.2122C126.465 43.5479 126.661 43.9145 126.989 44.1866C127.318 44.4602 127.709 44.5791 128.003 44.5099C128.33 44.433 128.675 44.1763 128.917 43.8321C129.16 43.4856 129.258 43.11 129.185 42.8193C129.097 42.4733 128.886 42.1249 128.592 41.8969ZM128.954 41.4283C129.364 41.7452 129.643 42.2127 129.759 42.6743C129.89 43.1913 129.702 43.7439 129.402 44.1725C129.099 44.6032 128.642 44.9684 128.139 45.0867C127.604 45.2125 127.028 44.9891 126.61 44.6424C126.191 44.2941 125.86 43.7624 125.89 43.1812C125.914 42.725 125.96 42.2767 126.171 41.9066C126.394 41.5151 126.773 41.2555 127.356 41.1041C127.984 40.941 128.537 41.1054 128.954 41.4283Z" fill="#121213"/>
<path fill-rule="evenodd" clip-rule="evenodd" d="M142.281 39.0447C142.788 38.8374 143.82 39.2731 144.217 40.3265C144.614 41.3799 143.951 42.176 143.385 42.3207C142.819 42.4655 141.833 42.4138 141.406 41.2118C140.98 40.0098 141.773 39.2519 142.281 39.0447Z" fill="#121213"/>
<path fill-rule="evenodd" clip-rule="evenodd" d="M143.145 39.4693C142.815 39.2784 142.53 39.2638 142.396 39.3189C142.198 39.3995 141.927 39.5983 141.754 39.9019C141.587 40.1938 141.505 40.5942 141.689 41.1127C141.875 41.639 142.17 41.884 142.454 41.9954C142.751 42.1118 143.073 42.0954 143.314 42.0337C143.716 41.9309 144.275 41.3126 143.943 40.4311C143.77 39.9719 143.46 39.6517 143.145 39.4693ZM143.441 38.9564C143.868 39.2034 144.273 39.6277 144.497 40.222C144.959 41.4473 144.191 42.4211 143.461 42.6078C143.136 42.6908 142.682 42.7209 142.238 42.5472C141.782 42.3684 141.37 41.9866 141.13 41.3108C140.888 40.6274 140.988 40.0478 141.239 39.6085C141.483 39.1808 141.861 38.8971 142.171 38.7704C142.544 38.6183 143.029 38.7179 143.441 38.9564Z" fill="#121213"/>
<path fill-rule="evenodd" clip-rule="evenodd" d="M146.609 45.0122C146.658 44.0676 149.5 43.0723 152.558 42.63C155.616 42.1878 157.361 42.4716 157.271 44.1906C157.181 45.9095 155.804 45.6544 152.071 46.098C148.338 46.5415 146.559 45.9568 146.609 45.0122Z" fill="#121213"/>
<path fill-rule="evenodd" clip-rule="evenodd" d="M156.017 42.8845C155.276 42.6727 154.13 42.7022 152.604 42.923C151.09 43.1419 149.637 43.4968 148.564 43.909C148.026 44.1157 147.598 44.3316 147.306 44.5432C146.999 44.766 146.912 44.9337 146.907 45.0274C146.901 45.1537 146.949 45.2821 147.108 45.4143C147.277 45.554 147.561 45.6876 147.991 45.7867C148.848 45.9844 150.187 46.0236 152.039 45.8035C152.731 45.7213 153.344 45.6628 153.879 45.6117C154.069 45.5936 154.249 45.5764 154.419 45.5595C155.077 45.494 155.581 45.4322 155.968 45.335C156.354 45.2379 156.584 45.1145 156.727 44.9541C156.866 44.7978 156.958 44.5664 156.978 44.1748C156.998 43.7965 156.916 43.5309 156.77 43.3384C156.622 43.1433 156.381 42.9883 156.017 42.8845ZM157.242 42.9799C157.493 43.3102 157.595 43.7246 157.57 44.2058C157.545 44.6737 157.431 45.055 157.17 45.3482C156.912 45.6373 156.548 45.8002 156.112 45.9096C155.677 46.0189 155.131 46.084 154.478 46.1491C154.304 46.1664 154.121 46.1838 153.93 46.2021C153.396 46.253 152.793 46.3106 152.109 46.3919C150.228 46.6154 148.811 46.584 147.858 46.364C147.382 46.2543 146.998 46.0924 146.73 45.8706C146.454 45.6413 146.298 45.3424 146.316 44.9964C146.336 44.6179 146.623 44.3069 146.958 44.0636C147.309 43.8091 147.791 43.5714 148.352 43.3559C149.477 42.9238 150.975 42.5599 152.519 42.3366C154.05 42.1151 155.307 42.0653 156.18 42.3147C156.623 42.4414 156.992 42.6521 157.242 42.9799Z" fill="#121213"/>
<path fill-rule="evenodd" clip-rule="evenodd" d="M126.268 47.2143C125.991 46.3097 122.993 46.0316 119.919 46.3423C116.844 46.653 115.22 47.3505 115.723 48.9966C116.227 50.6427 117.501 50.0619 121.231 49.5892C124.96 49.1165 126.544 48.1188 126.268 47.2143Z" fill="#121213"/>
<path fill-rule="evenodd" clip-rule="evenodd" d="M116.626 47.4253C117.294 47.0406 118.412 46.7921 119.947 46.637C121.469 46.4832 122.964 46.4762 124.105 46.6166C124.677 46.687 125.145 46.7927 125.479 46.9275C125.831 47.0693 125.956 47.2111 125.983 47.3009C126.02 47.4218 126.005 47.558 125.882 47.7249C125.752 47.9011 125.508 48.0996 125.116 48.2997C124.332 48.6988 123.042 49.0607 121.192 49.2953C120.501 49.3829 119.892 49.4745 119.36 49.5544C119.171 49.5828 118.993 49.6096 118.823 49.6343C118.169 49.7298 117.665 49.7919 117.266 49.7912C116.868 49.7905 116.615 49.7265 116.437 49.6054C116.264 49.4874 116.12 49.2849 116.005 48.9099C115.894 48.5477 115.91 48.2701 116.005 48.0479C116.102 47.8228 116.298 47.6141 116.626 47.4253ZM115.461 47.8142C115.297 48.1955 115.298 48.6224 115.439 49.0832C115.576 49.5312 115.779 49.8735 116.103 50.0948C116.423 50.313 116.816 50.3829 117.265 50.3837C117.714 50.3845 118.259 50.3155 118.909 50.2206C119.082 50.1954 119.263 50.1681 119.453 50.1396C119.984 50.0598 120.583 49.9698 121.267 49.8831C123.145 49.6449 124.513 49.2717 125.385 48.8277C125.819 48.6062 126.153 48.3561 126.359 48.0761C126.572 47.7867 126.651 47.4589 126.55 47.1276C126.439 46.7651 126.085 46.5329 125.701 46.3779C125.299 46.2159 124.773 46.1019 124.177 46.0285C122.981 45.8813 121.44 45.8906 119.887 46.0475C118.348 46.2031 117.117 46.4587 116.33 46.9119C115.93 47.1421 115.623 47.4359 115.461 47.8142Z" fill="#121213"/>
<path fill-rule="evenodd" clip-rule="evenodd" d="M147.134 50.1814C147.183 49.2368 149.071 47.9642 153.083 47.7993C157.095 47.6344 157.825 47.3937 157.735 49.1127C157.644 50.8316 156.37 50.0347 152.637 50.4783C148.904 50.9219 147.084 51.126 147.134 50.1814Z" fill="#121213"/>
<path fill-rule="evenodd" clip-rule="evenodd" d="M154.278 48.0419C153.92 48.0588 153.526 48.0775 153.091 48.0954C151.111 48.1768 149.677 48.531 148.743 48.9666C148.275 49.1845 147.943 49.4184 147.728 49.6401C147.511 49.8637 147.432 50.0562 147.425 50.197C147.421 50.2662 147.435 50.3036 147.449 50.327C147.465 50.3518 147.497 50.3862 147.571 50.4218C147.731 50.4987 148.015 50.5485 148.466 50.5542C149.357 50.5655 150.721 50.4071 152.597 50.1842C153.543 50.0718 154.333 50.038 154.984 50.0234C155.179 50.019 155.358 50.0163 155.525 50.0138C155.924 50.0079 156.249 50.003 156.521 49.9787C156.909 49.9441 157.107 49.874 157.22 49.7702C157.325 49.6743 157.413 49.4979 157.434 49.0972C157.456 48.6725 157.421 48.4394 157.345 48.3013C157.285 48.1903 157.173 48.0977 156.884 48.0402C156.585 47.9805 156.152 47.9705 155.519 47.9894C155.161 48.0001 154.751 48.0195 154.278 48.0419ZM157.865 48.0171C158.026 48.3121 158.048 48.6935 158.026 49.1283C158.002 49.5871 157.896 49.9557 157.62 50.2077C157.353 50.4517 156.982 50.5325 156.573 50.5689C156.278 50.5952 155.92 50.6006 155.508 50.6068C155.346 50.6092 155.176 50.6118 154.997 50.6158C154.357 50.6302 153.588 50.6632 152.667 50.7725C150.81 50.9932 149.398 51.1586 148.458 51.1467C147.994 51.1408 147.598 51.0923 147.314 50.9557C147.166 50.8846 147.036 50.7834 146.946 50.6403C146.856 50.4957 146.824 50.3329 146.833 50.166C146.85 49.8344 147.025 49.5137 147.302 49.2279C147.581 48.9401 147.98 48.6685 148.492 48.4295C149.518 47.9515 151.034 47.5869 153.066 47.5034C153.492 47.4859 153.883 47.4674 154.241 47.4504C154.72 47.4278 155.14 47.408 155.502 47.3972C156.131 47.3783 156.627 47.3846 157 47.4591C157.384 47.5356 157.689 47.6948 157.865 48.0171Z" fill="#121213"/>
<path fill-rule="evenodd" clip-rule="evenodd" d="M126.795 52.383C126.518 51.4785 124.378 50.7005 120.445 51.511C116.513 52.3216 115.747 52.2646 116.25 53.9107C116.753 55.5568 117.797 54.4752 121.527 54.0025C125.256 53.5298 127.071 53.2876 126.795 52.383Z" fill="#121213"/>
<path fill-rule="evenodd" clip-rule="evenodd" d="M119.339 52.0369C119.69 51.9667 120.077 51.8895 120.504 51.8015C122.445 51.4015 123.921 51.3983 124.933 51.595C125.439 51.6934 125.819 51.8398 126.081 52.0029C126.345 52.1675 126.469 52.3352 126.51 52.4699C126.53 52.5362 126.526 52.5759 126.517 52.602C126.508 52.6299 126.485 52.6711 126.422 52.7235C126.285 52.8369 126.022 52.9539 125.586 53.0685C124.724 53.295 123.362 53.4713 121.488 53.7088C120.543 53.8286 119.768 53.987 119.133 54.1303C118.943 54.1731 118.768 54.214 118.606 54.2518C118.217 54.3427 117.901 54.4165 117.631 54.4587C117.246 54.519 117.037 54.4989 116.902 54.4256C116.777 54.358 116.649 54.208 116.532 53.8243C116.408 53.4176 116.386 53.1828 116.425 53.0305C116.457 52.9082 116.543 52.7914 116.809 52.6657C117.085 52.5354 117.503 52.4209 118.122 52.2862C118.472 52.2099 118.874 52.1296 119.339 52.0369ZM115.852 52.8806C115.767 53.2059 115.838 53.5812 115.965 53.9976C116.1 54.4369 116.291 54.769 116.62 54.9468C116.938 55.1189 117.318 55.1075 117.723 55.0441C118.016 54.9983 118.364 54.9168 118.765 54.8232C118.923 54.7863 119.089 54.7475 119.263 54.7083C119.888 54.5674 120.643 54.4132 121.562 54.2967C123.418 54.0615 124.828 53.8804 125.737 53.6415C126.186 53.5234 126.558 53.3807 126.8 53.1795C126.927 53.0746 127.029 52.9448 127.081 52.7844C127.134 52.6223 127.125 52.4566 127.077 52.2967C126.98 51.9792 126.732 51.7104 126.394 51.5C126.054 51.2882 125.601 51.1212 125.046 51.0133C123.936 50.7975 122.376 50.8106 120.384 51.2212C119.967 51.3071 119.583 51.3839 119.231 51.4541C118.761 51.548 118.349 51.6303 117.996 51.7073C117.38 51.8413 116.901 51.9674 116.556 52.1299C116.202 52.2971 115.945 52.5253 115.852 52.8806Z" fill="#121213"/>
<path d="M54.6738 47.6621C54.5519 49.0547 52.3834 50.0026 49.8302 49.7792C47.277 49.5559 45.306 48.2458 45.4278 46.8532C45.5497 45.4605 47.7182 44.5126 50.2714 44.736C52.8246 44.9594 54.7956 46.2694 54.6738 47.6621Z" fill="#FFB4B4"/>
<path d="M80.1503 52.1985C80.0285 53.5911 77.8599 54.539 75.3067 54.3156C72.7535 54.0922 70.7825 52.7822 70.9044 51.3895C71.0262 49.9969 73.1948 49.049 75.748 49.2724C78.3012 49.4958 80.2722 50.8058 80.1503 52.1985Z" fill="#FFB4B4"/>
<path fill-rule="evenodd" clip-rule="evenodd" d="M137.953 48.2959C138.63 48.191 140.524 47.4525 140.574 46.4933C140.625 45.5342 139.951 45.176 137.398 45.4632C134.845 45.7504 133.997 46.9407 134.142 47.4566C134.399 48.3688 137.277 48.4007 137.953 48.2959Z" fill="#121213"/>
<path fill-rule="evenodd" clip-rule="evenodd" d="M140.713 45.7377C140.849 45.9699 140.884 46.2368 140.869 46.5089C140.852 46.846 140.674 47.1356 140.453 47.3688C140.23 47.6037 139.94 47.8061 139.643 47.9732C139.053 48.3053 138.377 48.5299 137.998 48.5886C137.625 48.6465 136.707 48.6629 135.851 48.5514C135.422 48.4955 134.988 48.4051 134.638 48.2614C134.303 48.1245 133.959 47.9042 133.856 47.5367C133.792 47.3098 133.848 47.0585 133.968 46.8302C134.09 46.5967 134.293 46.3594 134.576 46.1401C135.142 45.7007 136.048 45.3169 137.364 45.1688C138.638 45.0255 139.509 45.0327 140.062 45.2322C140.351 45.3366 140.574 45.5003 140.713 45.7377ZM139.861 45.7896C139.452 45.6421 138.709 45.6138 137.43 45.7577C136.193 45.8968 135.399 46.2518 134.939 46.6083C134.709 46.7869 134.568 46.9619 134.492 47.1056C134.414 47.2545 134.418 47.3454 134.427 47.3764C134.451 47.4651 134.563 47.5908 134.862 47.7132C135.144 47.8288 135.521 47.9108 135.928 47.9639C136.744 48.0702 137.603 48.0502 137.907 48.0031C138.205 47.957 138.814 47.7599 139.352 47.4568C139.62 47.3062 139.855 47.1376 140.023 46.961C140.192 46.7827 140.27 46.6203 140.278 46.4778C140.289 46.2704 140.258 46.1328 140.202 46.037C140.149 45.9465 140.053 45.8588 139.861 45.7896Z" fill="#121213"/>
</svg>
